<svg id="Ebene_3" data-name="Ebene 3" xmlns="http://www.w3.org/2000/svg" viewBox="0 0 90 35"><defs><style>.cls-1{fill:#333;}</style></defs><title>ic52-x-d</title><path id="Limousine" class="cls-1" d="M12.6,23.9A5.4,5.4,0,1,0,18,29.3,5.508,5.508,0,0,0,12.6,23.9Zm0,8.8a3.5,3.5,0,0,1,0-7,3.418,3.418,0,0,1,3.5,3.5A3.61,3.61,0,0,1,12.6,32.7Zm0-5.9a2.5,2.5,0,1,1-2.5,2.5A2.476,2.476,0,0,1,12.6,26.8Zm64.2-4.4-0.9-4,0.4-1.5-7.1-1.2S58.4,10.3,56.3,10c-7-.9-15.9-1.2-22.1.1,0,0-2.9,1.1-11.2,6.8,0,0-13.5.9-18.4,2.7l-2,.8-2.1,3,0.2,2.1L0,26.4l0.4,3.9,5.7,1H6.3a6.448,6.448,0,0,1-.3-2,6.6,6.6,0,1,1,13.2,0,6.929,6.929,0,0,1-.3,2H56.7a6.014,6.014,0,0,1-.3-2,6.6,6.6,0,1,1,13.2,0,4.869,4.869,0,0,1-.1,1.2H70l7.5-1.2,0.4-5.8A4.447,4.447,0,0,0,76.8,22.4ZM5.1,23.7l-3,1.2a6.007,6.007,0,0,1,2-3,30.652,30.652,0,0,1,3.5-1.1Zm58-5.6c-6.6.7-14.9,0.5-30.2,1.3-5.6.3-10,.4-10.7,0.5-3,.3-9,0.4-10.9.6,2.3-.9,7.9-1.4,12.4-1.6,5.1-3.7,9.6-6.6,10.9-6.9a29.776,29.776,0,0,1,8.7-1l-0.6,7.1c0.9,0,2.6-.1,2.7-0.1L46,11.2a92.964,92.964,0,0,1,10.5.9l-0.4,5.6a13.434,13.434,0,0,0,1.9-.1l0.4-5.1A24.916,24.916,0,0,1,66,17.8,14.368,14.368,0,0,1,63.1,18.1Zm0,5.8a5.4,5.4,0,1,0,5.4,5.4A5.378,5.378,0,0,0,63.1,23.9Zm0,8.8a3.5,3.5,0,1,1,3.5-3.5A3.478,3.478,0,0,1,63.1,32.7Zm0-5.9a2.5,2.5,0,1,1-2.5,2.5A2.476,2.476,0,0,1,63.1,26.8Z"/></svg>