<?xml version="1.0" encoding="utf-8"?>
<!-- Generator: Adobe Illustrator 19.2.0, SVG Export Plug-In . SVG Version: 6.00 Build 0)  -->
<svg version="1.1" id="Ebene_3" xmlns="http://www.w3.org/2000/svg" xmlns:xlink="http://www.w3.org/1999/xlink" x="0px" y="0px"
	 viewBox="0 0 90 35" style="enable-background:new 0 0 90 35;" xml:space="preserve">
<style type="text/css">
	.st0{fill:#333333;}
</style>
<path id="Offroader" class="st0" d="M14.5,21.7c-3.6,0-6.5,2.9-6.5,6.5s2.9,6.5,6.5,6.5s6.5-2.9,6.5-6.5S18.1,21.7,14.5,21.7z
	 M14.5,32.4c-2.4,0-4.3-1.9-4.3-4.3s1.9-4.3,4.3-4.3s4.3,1.9,4.3,4.3C18.7,30.6,16.8,32.4,14.5,32.4z M14.5,24.9
	c-1.8,0-3.3,1.5-3.3,3.3s1.5,3.3,3.3,3.3s3.3-1.5,3.3-3.3S16.3,24.9,14.5,24.9z M78.8,19.6l-0.1-3.7l-3.8-8.6l0.7-0.8l-0.2-1.1
	c-6.9-0.9-39.8-1.8-42-0.1c-4.4,3.5-8.5,7.5-8.5,7.5L4.2,15.5l-2.7,2.2L0,20.8l0.8,1.5l-0.7,0.5l1,5.1l5.7,0.8
	c-0.1-0.5-0.2-1.2-0.2-1.7c0-4.3,3.5-7.8,7.8-7.8s7.8,3.5,7.8,7.8c0,0.8-0.2,1.7-0.4,2.5c7.2,0,34.4,0,36,0c0-0.1,0-0.3-0.1-0.4
	c-0.2-0.6-0.3-1.3-0.3-2c0-4.4,3.5-7.9,7.9-7.9s7.9,3.5,7.9,7.9c0,0.2,0,0.3,0,0.5s0,0.5,0,0.5l6.2-1.8l0.5-4.8L78.8,19.6z
	 M4.5,20.8L2,21.5l1.5-3.1l2.6-1L8,18.6L4.5,20.8z M11.3,17.3c0,0,2.9-0.9,14-1.5c4.8-4.5,8-7.6,9.5-8.7c2.9-0.9,11.7-0.5,11.7-0.5
	L45.9,15c1.2-0.1,2.5-0.1,3.6-0.2L50,6.5c1.8,0,6.2,0,6.2,0l0,0c2.1,0,6.2,0,6.2,0l2,7.8c0.6,0,1.2,0,1.7,0l-2-7.7L70.7,7l2.9,5.5
	l-0.5,2.1c0,0-1.3,0.2-3.1,0.4c-1.9,0.2-4.5,0.4-7.7,0.5c0,0-28.5,0.9-35.7,1.5C18.6,17.3,11.3,17.3,11.3,17.3z M65.5,21.7
	c-3.6,0-6.5,2.9-6.5,6.5s2.9,6.5,6.5,6.5s6.5-2.9,6.5-6.5S69.1,21.7,65.5,21.7z M65.5,32.4c-2.4,0-4.3-1.9-4.3-4.3s1.9-4.3,4.3-4.3
	c2.4,0,4.3,1.9,4.3,4.3C69.7,30.6,67.8,32.4,65.5,32.4z M65.5,24.9c-1.8,0-3.3,1.5-3.3,3.3s1.5,3.3,3.3,3.3c1.8,0,3.3-1.5,3.3-3.3
	S67.3,24.9,65.5,24.9z"/>
</svg>
