<?xml version="1.0" encoding="utf-8"?>
<!-- Generator: Adobe Illustrator 19.2.0, SVG Export Plug-In . SVG Version: 6.00 Build 0)  -->
<svg version="1.1" id="Ebene_3" xmlns="http://www.w3.org/2000/svg" xmlns:xlink="http://www.w3.org/1999/xlink" x="0px" y="0px"
	 viewBox="0 0 90 35" style="enable-background:new 0 0 90 35;" xml:space="preserve">
<style type="text/css">
	.st0{fill:#333333;}
</style>
<path id="Coupe" class="st0" d="M12.9,26.9c-1.4,0-2.6,1.2-2.6,2.6c0,0.4,0.1,0.7,0.3,1.1c0.5,0.8,1.3,1.5,2.3,1.5s1.9-0.6,2.3-1.5
	c0.2-0.4,0.3-0.7,0.3-1.1C15.5,28,14.4,26.9,12.9,26.9z M65.7,23.9c-3,0-5.5,2.5-5.5,5.5s2.5,5.5,5.5,5.5s5.5-2.5,5.5-5.5
	S68.8,23.9,65.7,23.9z M65.7,32.9c-1.9,0-3.5-1.6-3.5-3.5s1.6-3.5,3.5-3.5s3.5,1.6,3.5,3.5S67.7,32.9,65.7,32.9z M12.9,23.9
	c-3,0-5.5,2.5-5.5,5.5s2.5,5.5,5.5,5.5s5.5-2.5,5.5-5.5S15.9,23.9,12.9,23.9z M12.9,32.9c-1.9,0-3.5-1.6-3.5-3.5s1.6-3.5,3.5-3.5
	s3.5,1.6,3.5,3.5S14.8,32.9,12.9,32.9z M79.7,22.3l-0.9-4.1l0.5-1.6L72,15.4c-12.3-6-24.4-7.5-35-5.2c0,0-3,0.6-11.5,6.4
	c0,0-15.7,0.9-20.8,2.8l-2.1,0.8l-2.1,3.1l0.2,2.2l-0.7,1c0,0,0.5,4,0.4,4l5.9,1.1h0.2c-0.2-0.6-0.4-1.4-0.4-2.1
	c0-3.8,3-6.8,6.8-6.8s6.8,3,6.8,6.8c0,0.7-0.1,1.5-0.4,2.1h0.5l39.1-0.1l0.2-0.1c-0.2-0.6-0.3-1.4-0.3-2c0-3.8,3-6.8,6.8-6.8
	s6.8,3,6.8,6.8c0,0.5,0,0.8-0.1,1.2h0.3c1.3-0.3,7.7-1.3,7.7-1.3l0.6-5.9C81,23.4,80.4,23,79.7,22.3z M5.1,23.5L2,24.7
	c0,0,0.6-2.2,2.1-3c0.8-0.5,3.6-1.1,3.6-1.1L5.1,23.5z M67.3,17.8c-1.7,0.2-4,0.4-6.9,0.5c-15.9,0.5-35.8,1.6-36,1.6
	c-4,0.2-9.7,0.6-9.7,0.6s2.7-1.1,11.7-1.6c4.5-3.8,10.2-6.5,10.2-6.5c2.9-0.8,7-1.2,7.2-1.2c2-0.2,4.1-0.1,6.4,0.1l-0.6,6.6
	c1.3-0.1,2.5-0.1,3.6-0.1l0.6-6.1c4.7,0.7,9.2,2.2,12.2,4c0.3,0.2-3.3,1.4-4.8,1.8c5.1-0.3,8.7,0.1,8.7,0.1S68.9,17.6,67.3,17.8z
	 M65.7,26.8c1.4,0,2.6,1.2,2.6,2.6S67.1,32,65.7,32s-2.6-1.2-2.6-2.6S64.3,26.8,65.7,26.8z"/>
</svg>
