<?xml version="1.0" encoding="utf-8"?>
<!-- Generator: Adobe Illustrator 19.2.0, SVG Export Plug-In . SVG Version: 6.00 Build 0)  -->
<svg version="1.1" id="Ebene_3" xmlns="http://www.w3.org/2000/svg" xmlns:xlink="http://www.w3.org/1999/xlink" x="0px" y="0px"
	 viewBox="0 0 90 35" style="enable-background:new 0 0 90 35;" xml:space="preserve">
<style type="text/css">
	.st0{fill:#333333;}
</style>
<path id="Tourer" class="st0" d="M13.5,23.7c-3.1,0-5.7,2.5-5.7,5.7c0,3.1,2.5,5.7,5.7,5.7c3.1,0,5.7-2.5,5.7-5.7
	C19.1,26.2,16.6,23.7,13.5,23.7z M13.5,33.1L13.5,33.1c-2,0-3.7-1.7-3.7-3.7s1.7-3.7,3.7-3.7l0,0c2,0,3.7,1.7,3.7,3.7
	S15.6,33.1,13.5,33.1z M13.5,26.6L13.5,26.6c-1.5,0-2.8,1.2-2.7,2.7c0,1.5,1.2,2.7,2.7,2.7l0,0c0.7,0,1.4-0.3,2-0.8
	c0.5-0.5,0.8-1.2,0.8-2C16.2,27.8,15,26.6,13.5,26.6z M66.7,23.7c-3.1,0-5.7,2.5-5.7,5.7c0,3.1,2.5,5.7,5.7,5.7
	c3.1,0,5.7-2.5,5.7-5.7C72.4,26.2,69.8,23.7,66.7,23.7z M66.7,33L66.7,33c-2,0-3.6-1.6-3.6-3.5s1.6-3.6,3.5-3.6l0,0
	c2,0,3.5,1.6,3.5,3.5C70.4,31.4,68.8,32.9,66.7,33z M77.1,21.4c-2-6.9-4-9.3-4.3-9.7l0.7-0.4l-0.2-0.5C67,9.4,55.8,7.7,41,8.2
	c-8.1,0.3-18.3,7.4-18.9,7.6c-1.4,0.6-15.8,2-20.7,5.1l-1.3,3.5l0.3,1.2L0,26l0.5,4l6.2,1.3c-0.2-0.6-0.3-1.3-0.3-2
	c0-3.8,3.1-6.9,6.9-6.9s6.9,3.1,6.9,6.9c0,0.7-0.1,1.4-0.3,2H60c-0.2-0.6-0.3-1.3-0.3-2c0-3.8,3.1-6.9,6.9-6.9
	c3.6,0,6.6,2.8,6.9,6.4v1.9l3.1-1l1.2-6.9L77.1,21.4z M5.3,23.7l-3.2,1.2c0,0,0.7-2.2,2.1-3.1C5.1,21.4,8,20.7,8,20.7L5.3,23.7z
	 M62.1,17.5c-0.1,0-16.3,0.6-16.8,0.6c-1.2,0-15,0.3-23.9,1.2c-4.7,0.4-11.2,0.8-11.2,0.8s5.1-1.2,11.2-1.8c4-2.4,12.1-7.1,18.2-8.2
	c1.2-0.2,5.1-0.3,5.1-0.3l-1.1,7.3c0.6,0,2.5-0.1,2.7-0.1l1.1-7.3c5.1,0,8.8,0.1,12.5,0.6l1.9,6.1c0.2,0,1.4,0,2,0L62,11.1
	c4.3,0.9,8.7,3.5,11.3,6.2C73.2,17.2,63.8,17.6,62.1,17.5z M66.7,26.7L66.7,26.7c-1.5,0.1-2.7,1.2-2.7,2.7c0,1.4,1.2,2.7,2.7,2.7
	l0,0c1.4,0,2.7-1.2,2.7-2.7C69.4,27.9,68.2,26.7,66.7,26.7z"/>
</svg>
