<?xml version="1.0" encoding="utf-8"?>
<!-- Generator: Adobe Illustrator 19.2.0, SVG Export Plug-In . SVG Version: 6.00 Build 0)  -->
<svg version="1.1" id="Ebene_3" xmlns="http://www.w3.org/2000/svg" xmlns:xlink="http://www.w3.org/1999/xlink" x="0px" y="0px"
	 viewBox="0 0 90 35" style="enable-background:new 0 0 90 35;" xml:space="preserve">
<style type="text/css">
	.st0{fill:#333333;}
</style>
<path id="Cabrio" class="st0" d="M17.4,29.2c0,1.4-1.1,2.6-2.6,2.6c-1.4,0-2.6-1.1-2.6-2.6c0-1.4,1.1-2.6,2.6-2.6
	C16.1,26.7,17.4,27.8,17.4,29.2z M20.4,29.2c0,3-2.4,5.5-5.5,5.5c-3,0-5.5-2.4-5.5-5.5c0-3,2.4-5.5,5.5-5.5
	C17.9,23.8,20.4,26.2,20.4,29.2z M18.3,29.2c0-1.9-1.6-3.5-3.5-3.5s-3.5,1.6-3.5,3.5s1.6,3.5,3.5,3.5C16.7,32.9,18.3,31.2,18.3,29.2
	z M54.4,17.5v-2.3l-1.9-1l-1.6,3.4C50.8,17.6,54.4,17.5,54.4,17.5z M68.1,29.2c0,3-2.4,5.5-5.5,5.5c-3,0-5.5-2.4-5.5-5.5
	c0-3,2.4-5.5,5.5-5.5C65.7,23.8,68.1,26.2,68.1,29.2z M66.1,29.2c0-1.9-1.6-3.5-3.5-3.5s-3.5,1.6-3.5,3.5s1.6,3.5,3.5,3.5
	C64.6,32.9,66.1,31.2,66.1,29.2z M62.7,26.6c-1.4,0-2.6,1.1-2.6,2.6c0,1.4,1.1,2.6,2.6,2.6c1.4,0,2.6-1.1,2.6-2.6
	C65.2,27.8,64,26.6,62.7,26.6z M76,24l-0.7,5.6l-6.2,2.6l0,0c0.2-0.9,0.3-1.8,0.3-2.5c0-3.7-3-7-6.8-7s-6.6,3-6.6,6.7
	c0,0.7,0.1,1.8,0.3,2.5L56,32.3H21.3c0.2-0.9,0.3-1.7,0.3-2.4c0-4.1-3-7.2-6.8-7.2S8.1,26.3,8.1,30c0,0.7,0.1,1.4,0.3,2.3H8
	l-3.6-0.9l-4.2-2L0,26.6l0.7-0.9l-0.2-2.3l2.3-2.2L5,20.3c5.3-2,20.2-3.3,20.2-3.3s10.1-4.6,13.4-5.5c0.1-0.1,1.2-0.2,1.2-0.2V13
	c-3.5,1-9.4,3.7-13,5.8C16.7,19,10,20.6,10,20.6s5.4,0.1,11.1-0.5c12.8-1,35.5-1.4,41.4-2.2c1-0.2,2.7-0.4,2.7-0.4l10.2,1.3L75,20.5
	l0.4,2.6L76,24z M7.6,21.3c0,0-2.9,0.7-3.8,1.1c-1.5,0.9-2.3,3.2-2.3,3.2l3.4-1.2L7.6,21.3z"/>
</svg>
