<?xml version="1.0" encoding="utf-8"?>
<!-- Generator: Adobe Illustrator 19.2.0, SVG Export Plug-In . SVG Version: 6.00 Build 0)  -->
<svg version="1.1" id="Ebene_3" xmlns="http://www.w3.org/2000/svg" xmlns:xlink="http://www.w3.org/1999/xlink" x="0px" y="0px"
	 viewBox="0 0 90 35" style="enable-background:new 0 0 90 35;" xml:space="preserve">
<style type="text/css">
	.st0{fill:#00ADEF;}
</style>
<path id="Limousine" class="st0" d="M12.6,23.9c-2.982,0-5.4,2.418-5.4,5.4s2.418,5.4,5.4,5.4s5.4-2.418,5.4-5.4l0,0
	C17.943,26.342,15.558,23.957,12.6,23.9z M12.6,32.7c-1.933,0-3.5-1.567-3.5-3.5s1.567-3.5,3.5-3.5
	c1.887-0.046,3.454,1.447,3.5,3.334c0.001,0.055,0.001,0.111,0,0.166C16.043,31.109,14.509,32.643,12.6,32.7z M12.6,26.8
	c1.381,0,2.5,1.119,2.5,2.5s-1.119,2.5-2.5,2.5s-2.5-1.119-2.5-2.5c-0.013-1.367,1.084-2.487,2.452-2.5
	C12.568,26.8,12.584,26.8,12.6,26.8z M76.8,22.4l-0.9-4l0.4-1.5l-7.1-1.2c0,0-10.8-5.4-12.9-5.7c-7-0.9-15.9-1.2-22.1,0.1
	c0,0-2.9,1.1-11.2,6.8c0,0-13.5,0.9-18.4,2.7l-2,0.8l-2.1,3l0.2,2.1L0,26.4l0.4,3.9l5.7,1h0.2c-0.205-0.647-0.306-1.322-0.3-2
	c0-3.645,2.955-6.6,6.6-6.6s6.6,2.955,6.6,6.6c-0.002,0.678-0.103,1.352-0.3,2h37.8c-0.212-0.645-0.314-1.321-0.3-2
	c-0.002-3.645,2.951-6.602,6.596-6.604s6.602,2.951,6.604,6.596c0,0.003,0,0.006,0,0.008c0.016,0.403-0.017,0.806-0.1,1.2H70
	l7.5-1.2l0.4-5.8C77.601,23.072,77.228,22.699,76.8,22.4z M5.1,23.7l-3,1.2c0.344-1.181,1.042-2.228,2-3
	c1.144-0.436,2.312-0.804,3.5-1.1L5.1,23.7z M63.1,18.1c-6.6,0.7-14.9,0.5-30.2,1.3c-5.6,0.3-10,0.4-10.7,0.5c-3,0.3-9,0.4-10.9,0.6
	c2.3-0.9,7.9-1.4,12.4-1.6c5.1-3.7,9.6-6.6,10.9-6.9c2.835-0.76,5.767-1.097,8.7-1l-0.6,7.1c0.9,0,2.6-0.1,2.7-0.1l0.6-6.8
	c3.514,0.101,7.02,0.402,10.5,0.9l-0.4,5.6c0.635,0.012,1.27-0.022,1.9-0.1l0.4-5.1c2.842,1.276,5.42,3.074,7.6,5.3
	C65.046,17.998,64.074,18.099,63.1,18.1z M63.1,23.9c-2.982,0-5.4,2.418-5.4,5.4s2.418,5.4,5.4,5.4s5.4-2.418,5.4-5.4
	c0.012-2.97-2.386-5.388-5.356-5.4C63.129,23.9,63.115,23.9,63.1,23.9z M63.1,32.7c-1.933,0-3.5-1.567-3.5-3.5s1.567-3.5,3.5-3.5
	c1.933,0,3.5,1.567,3.5,3.5c0.012,1.921-1.535,3.488-3.456,3.5C63.129,32.7,63.115,32.7,63.1,32.7z M63.1,26.8
	c1.381,0,2.5,1.119,2.5,2.5s-1.119,2.5-2.5,2.5c-1.381,0-2.5-1.119-2.5-2.5c-0.013-1.367,1.084-2.487,2.452-2.5
	C63.068,26.8,63.084,26.8,63.1,26.8z"/>
</svg>
