<?xml version="1.0" encoding="utf-8"?>
<!-- Generator: Adobe Illustrator 21.1.0, SVG Export Plug-In . SVG Version: 6.00 Build 0)  -->
<svg version="1.1" id="Ebene_2" xmlns="http://www.w3.org/2000/svg" xmlns:xlink="http://www.w3.org/1999/xlink" x="0px" y="0px"
	 viewBox="-1535.601 -182.919 990.02 990.037" enable-background="new -1535.601 -182.919 990.02 990.037" xml:space="preserve">
<path fill-rule="evenodd" clip-rule="evenodd" fill="#999999" d="M-1535.584,312.108c-0.002-131.256-0.035-262.509,0.013-393.765
	c0.024-65.741,34.977-101.204,99.982-101.217c263.262-0.062,526.524-0.058,789.787,0c64.828,0.013,100.165,35.706,100.181,101.191
	c0.053,262.504,0.056,525.012-0.002,787.521c-0.016,66.347-35.37,101.249-102.383,101.258c-261.755,0.03-523.507,0.03-785.262,0
	c-67.138-0.009-102.261-34.738-102.296-101.227C-1535.633,574.617-1535.584,443.36-1535.584,312.108z M-992.696,238.737
	c0-10.057,0.031-14.566-0.004-19.08c-0.259-34.009-6.923-40.684-41.102-40.786c-30.162-0.093-60.329-0.336-90.485,0.093
	c-24.41,0.345-33.527,8.784-33.565,32.223c-0.234,152.321-0.254,304.643,0.018,456.964c0.04,22.859,8.78,30.923,31.876,31.18
	c32.419,0.357,64.848,0.23,97.271,0.062c28.3-0.146,35.926-7.842,35.961-36.378c0.093-77.669-1.758-155.403,1.015-232.974
	c0.954-26.764,9.495-54.95,21.299-79.216c16.116-33.133,48.469-40.308,83.207-36.104c32.271,3.908,52.184,23.894,60.237,53.526
	c6.043,22.245,8.919,45.936,9.266,69.039c1.132,75.392,0.4,150.806,0.504,226.21c0.045,31.034,5.5,36.316,37.219,36.405
	c32.424,0.093,64.85,0.168,97.274-0.031c27.329-0.168,34.25-7.232,34.292-35.158c0.11-70.882,1.127-141.787-0.4-212.638
	c-0.938-43.54-2.507-87.576-9.799-130.364c-11.925-69.967-47.094-125.81-120.816-142.291
	C-857.477,161.975-932.682,166.647-992.696,238.737z M-1392.467,438.285c0,74.671-0.075,149.338,0.038,224.004
	c0.042,28.757,7.878,36.932,35.43,37.1c31.677,0.189,63.356,0.296,95.031-0.045c24.303-0.261,33.624-9.814,33.646-34.826
	c0.139-150.089,0.152-300.178-0.009-450.271c-0.027-25.393-9.969-34.999-35.938-35.304c-30.165-0.358-60.337-0.266-90.504-0.04
	c-29.232,0.221-37.623,8.629-37.663,37.643C-1392.533,290.459-1392.469,364.374-1392.467,438.285z M-1310.979-75.68
	c-59.545-0.159-107.689,46.608-107.778,104.701c-0.091,60.148,47.505,108.764,106.66,108.94
	c58.935,0.177,106.949-47.077,107.179-105.488C-1204.676-29.006-1250.287-75.521-1310.979-75.68z"/>
</svg>
